<svg width="96" height="324" viewBox="0 0 96 324" fill="none" xmlns="http://www.w3.org/2000/svg">
<circle cx="48" cy="276.822" r="47.1777" fill="#D9D9D9"/>
<rect x="24.0879" y="0.864868" width="47.824" height="260.447" rx="23.912" fill="#D9D9D9"/>
<rect x="33.782" y="25.4231" width="28.4359" height="264.971" rx="14.2179" fill="#BFBFBF"/>
<circle cx="48" cy="276.822" r="34.8986" fill="#25ABE6"/>
<rect x="33.782" y="119.779" width="28.4359" height="157.044" rx="14.2179" fill="#25ABE6"/>
<path d="M36.9328 271.095H41.7328C44.1728 271.095 45.6928 272.555 45.6928 274.895V274.915C45.6928 277.255 44.1728 278.695 41.7328 278.695L39.4328 278.715C37.6128 278.715 36.6128 279.595 36.6128 281.235C36.6128 282.855 37.6128 283.755 39.4328 283.755H45.1328V285.035H39.2928C36.8528 285.035 35.3328 283.575 35.3328 281.235V281.215C35.3328 278.875 36.8528 277.435 39.2928 277.435H41.5928C43.3928 277.435 44.3928 276.535 44.4128 274.895C44.3928 273.275 43.3928 272.375 41.5928 272.375H36.9328V271.095ZM55.7399 278.695H50.6399C48.1999 278.695 46.6999 277.195 46.6999 274.835C46.6999 272.495 48.1999 271.035 50.6399 271.035H53.0999C55.5399 271.035 57.0399 272.495 57.0399 274.835V281.195C57.0399 283.575 55.5199 285.035 53.0599 285.035H47.9599V283.755H52.9799C54.7599 283.755 55.7399 282.855 55.7399 281.255V278.695ZM52.9599 272.315H50.7799C48.9799 272.315 47.9799 273.215 47.9799 274.835C47.9799 276.475 48.9799 277.435 50.7799 277.435H55.7599V274.835C55.7599 273.215 54.7599 272.315 52.9599 272.315Z" fill="white"/>
<path d="M59.2612 269.031C58.6852 269.031 58.2212 268.863 57.8692 268.527C57.5252 268.183 57.3532 267.739 57.3532 267.195C57.3532 266.651 57.5212 266.207 57.8572 265.863C58.2012 265.519 58.6692 265.347 59.2612 265.347C59.8212 265.347 60.2772 265.519 60.6292 265.863C60.9892 266.207 61.1692 266.651 61.1692 267.195C61.1692 267.739 60.9892 268.183 60.6292 268.527C60.2772 268.863 59.8212 269.031 59.2612 269.031ZM59.2732 268.323C59.6572 268.323 59.9372 268.219 60.1132 268.011C60.2972 267.803 60.3892 267.531 60.3892 267.195C60.3892 266.843 60.2932 266.563 60.1012 266.355C59.9172 266.147 59.6412 266.043 59.2732 266.043C58.8812 266.043 58.5932 266.147 58.4092 266.355C58.2252 266.563 58.1332 266.843 58.1332 267.195C58.1332 267.531 58.2252 267.803 58.4092 268.011C58.5932 268.219 58.8812 268.323 59.2732 268.323ZM63.3741 271.767C63.3741 272.739 63.9621 273.267 65.0421 273.267H67.8141V274.035H65.0061C63.5301 274.035 62.6061 273.159 62.6061 271.731V267.975C62.6061 266.559 63.5301 265.671 65.0061 265.671H67.8141V266.439H65.0421C63.9621 266.439 63.3741 266.979 63.3741 267.939V271.767Z" fill="white"/>
</svg>
